<svg width="1700" height="53" viewBox="0 0 1700 53" fill="none" xmlns="http://www.w3.org/2000/svg">
<path d="M1699.5 53C1699.46 53.0001 1699.42 52.9955 1699.38 52.986L1557.8 18.278C1464.87 -4.50559 1367.8 -4.50559 1274.87 18.278C1228.49 29.6411 1180.92 35.3877 1133.17 35.394C1085.42 35.3876 1037.85 29.6411 991.47 18.278C898.536 -4.50555 801.474 -4.50555 708.54 18.278C662.163 29.6411 614.589 35.3877 566.84 35.394C519.091 35.3877 471.517 29.6411 425.14 18.278C332.206 -4.50559 235.144 -4.50559 142.21 18.278L0.617992 52.988C0.489805 53.0182 0.354893 52.9966 0.242554 52.9279C0.130214 52.8592 0.0495188 52.7489 0.0179917 52.621C-0.0122081 52.493 0.00927667 52.3582 0.0777884 52.2459C0.1463 52.1335 0.256318 52.0528 0.383992 52.021L141.967 17.313C235.055 -5.50811 332.279 -5.50811 425.367 17.313C471.667 28.6571 519.163 34.3939 566.832 34.4C614.503 34.3918 661.999 28.6526 708.3 17.306C801.388 -5.51517 898.612 -5.51517 991.7 17.306C1038 28.65 1085.5 34.3869 1133.17 34.393C1180.83 34.3868 1228.33 28.65 1274.63 17.306C1367.72 -5.51513 1464.94 -5.51513 1558.03 17.306L1699.61 52.014C1699.73 52.0428 1699.84 52.1142 1699.91 52.2147C1699.97 52.3153 1700.01 52.4379 1699.99 52.5594C1699.98 52.681 1699.92 52.793 1699.83 52.8742C1699.73 52.9554 1699.62 53.0001 1699.49 53H1699.5Z" fill="white"/>
</svg>
